{
	"accessors" : 
	[
		{
			"bufferView" : 2,
			"byteOffset" : 0,
			"componentType" : 5126,
			"count" : 400,
			"max" : 
			[
				0.6800203323364258,
				0.6800203323364258,
				0.6800203323364258,
				0.2509804
			],
			"min" : 
			[
				0.6800203323364258,
				0.6800203323364258,
				0.6800203323364258,
				0.2509804
			],
			"name" : "accessor_color_m0-PolyGlass24_-150038",
			"type" : "VEC4"
		},
		{
			"bufferView" : 2,
			"byteOffset" : 6400,
			"componentType" : 5126,
			"count" : 5304,
			"max" : 
			[
				1,
				0.835527777671814,
				0.8277258276939392,
				1
			],
			"min" : 
			[
				5.692175545846112e-05,
				0.0384727455675602,
				0,
				1
			],
			"name" : "accessor_color_m1-PolyPaper20_-149540",
			"type" : "VEC4"
		},
		{
			"bufferView" : 2,
			"byteOffset" : 91264,
			"componentType" : 5126,
			"count" : 1080,
			"max" : 
			[
				1,
				1,
				1,
				1
			],
			"min" : 
			[
				1,
				1,
				1,
				1
			],
			"name" : "accessor_color_m2-PolyGem25_-153538",
			"type" : "VEC4"
		},
		{
			"bufferView" : 0,
			"byteOffset" : 0,
			"componentType" : 5123,
			"count" : 600,
			"max" : 
			[
				399
			],
			"min" : 
			[
				0
			],
			"name" : "accessor_indices_0_m0-PolyGlass24_-150038",
			"type" : "SCALAR"
		},
		{
			"bufferView" : 0,
			"byteOffset" : 1200,
			"componentType" : 5123,
			"count" : 7488,
			"max" : 
			[
				5303
			],
			"min" : 
			[
				0
			],
			"name" : "accessor_indices_0_m1-PolyPaper20_-149540",
			"type" : "SCALAR"
		},
		{
			"bufferView" : 0,
			"byteOffset" : 16176,
			"componentType" : 5123,
			"count" : 1656,
			"max" : 
			[
				1079
			],
			"min" : 
			[
				0
			],
			"name" : "accessor_indices_0_m2-PolyGem25_-153538",
			"type" : "SCALAR"
		},
		{
			"bufferView" : 1,
			"byteOffset" : 4800,
			"componentType" : 5126,
			"count" : 400,
			"max" : 
			[
				0.9913487,
				0.9948029,
				0.9867216
			],
			"min" : 
			[
				-0.9879745,
				-0.9884148,
				-0.9946074
			],
			"name" : "accessor_normal_m0-PolyGlass24_-150038",
			"type" : "VEC3"
		},
		{
			"bufferView" : 1,
			"byteOffset" : 73248,
			"componentType" : 5126,
			"count" : 5304,
			"max" : 
			[
				0.9998249,
				0.9991876,
				0.9996947
			],
			"min" : 
			[
				-0.9998249,
				-0.9991876,
				-0.9996947
			],
			"name" : "accessor_normal_m1-PolyPaper20_-149540",
			"type" : "VEC3"
		},
		{
			"bufferView" : 1,
			"byteOffset" : 149856,
			"componentType" : 5126,
			"count" : 1080,
			"max" : 
			[
				0.9999829,
				0.9087351,
				0.9637972
			],
			"min" : 
			[
				-0.9888742,
				-0.8563865000000001,
				-0.9744512
			],
			"name" : "accessor_normal_m2-PolyGem25_-153538",
			"type" : "VEC3"
		},
		{
			"bufferView" : 1,
			"byteOffset" : 0,
			"componentType" : 5126,
			"count" : 400,
			"max" : 
			[
				1.963917,
				1.867793,
				-0.9570891
			],
			"min" : 
			[
				1.562418,
				1.603164,
				-1.525138
			],
			"name" : "accessor_position_m0-PolyGlass24_-150038",
			"type" : "VEC3"
		},
		{
			"bufferView" : 1,
			"byteOffset" : 9600,
			"componentType" : 5126,
			"count" : 5304,
			"max" : 
			[
				1.86417,
				2.215345,
				1.935997
			],
			"min" : 
			[
				-2.770435,
				1.509013,
				-2.199379
			],
			"name" : "accessor_position_m1-PolyPaper20_-149540",
			"type" : "VEC3"
		},
		{
			"bufferView" : 1,
			"byteOffset" : 136896,
			"componentType" : 5126,
			"count" : 1080,
			"max" : 
			[
				-0.2143531,
				1.929623,
				-1.975963
			],
			"min" : 
			[
				-0.3834309,
				1.532467,
				-2.267482
			],
			"name" : "accessor_position_m2-PolyGem25_-153538",
			"type" : "VEC3"
		}
	],
	"asset" : 
	{
		"copyright" : "Unknown",
		"generator" : "glTF 1-to-2 Upgrader for Google Blocks",
		"version" : "2.0"
	},
	"bufferViews" : 
	[
		{
			"buffer" : 0,
			"byteLength" : 19488,
			"byteOffset" : 0,
			"name" : "ushortBufferView",
			"target" : 34963
		},
		{
			"buffer" : 0,
			"byteLength" : 162816,
			"byteOffset" : 19488,
			"byteStride" : 12,
			"name" : "vec3BufferView",
			"target" : 34962
		},
		{
			"buffer" : 0,
			"byteLength" : 108544,
			"byteOffset" : 182304,
			"byteStride" : 16,
			"name" : "vec4BufferView",
			"target" : 34962
		}
	],
	"buffers" : 
	[
		{
			"byteLength" : 290848,
			"name" : "model",
			"uri" : "model.bin"
		}
	],
	"materials" : 
	[
		{
			"alphaMode" : "OPAQUE",
			"doubleSided" : false,
			"name" : "BlocksPaper",
			"pbrMetallicRoughness" : 
			{
				"baseColorFactor" : 
				[
					1,
					1,
					1,
					1
				],
				"metallicFactor" : 0,
				"roughnessFactor" : 0.6
			}
		},
		{
			"alphaMode" : "BLEND",
			"doubleSided" : false,
			"name" : "BlocksGlass",
			"pbrMetallicRoughness" : 
			{
				"baseColorFactor" : 
				[
					0.2,
					0.2,
					1,
					0.3
				],
				"metallicFactor" : 1,
				"roughnessFactor" : 0.4
			}
		},
		{
			"alphaMode" : "OPAQUE",
			"doubleSided" : true,
			"name" : "BlocksGem",
			"pbrMetallicRoughness" : 
			{
				"baseColorFactor" : 
				[
					1,
					0.4,
					1,
					1
				],
				"metallicFactor" : 0,
				"roughnessFactor" : 0.1
			}
		}
	],
	"meshes" : 
	[
		{
			"name" : "mesh_m0-PolyGlass24_-150038",
			"primitives" : 
			[
				{
					"attributes" : 
					{
						"COLOR_0" : 0,
						"NORMAL" : 6,
						"POSITION" : 9
					},
					"indices" : 3,
					"material" : 1,
					"mode" : 4
				}
			]
		},
		{
			"name" : "mesh_m1-PolyPaper20_-149540",
			"primitives" : 
			[
				{
					"attributes" : 
					{
						"COLOR_0" : 1,
						"NORMAL" : 7,
						"POSITION" : 10
					},
					"indices" : 4,
					"material" : 0,
					"mode" : 4
				}
			]
		},
		{
			"name" : "mesh_m2-PolyGem25_-153538",
			"primitives" : 
			[
				{
					"attributes" : 
					{
						"COLOR_0" : 2,
						"NORMAL" : 8,
						"POSITION" : 11
					},
					"indices" : 5,
					"material" : 2,
					"mode" : 4
				}
			]
		}
	],
	"nodes" : 
	[
		{
			"matrix" : 
			[
				1,
				0,
				0,
				0,
				0,
				1,
				0,
				0,
				0,
				0,
				1,
				0,
				0,
				0,
				0,
				1
			],
			"mesh" : 0,
			"name" : "node_MeshObject-997437056-PolyGlass24"
		},
		{
			"matrix" : 
			[
				1,
				0,
				0,
				0,
				0,
				1,
				0,
				0,
				0,
				0,
				1,
				0,
				0,
				0,
				0,
				1
			],
			"mesh" : 1,
			"name" : "node_MeshObject170347584-PolyPaper20"
		},
		{
			"matrix" : 
			[
				1,
				0,
				0,
				0,
				0,
				1,
				0,
				0,
				0,
				0,
				1,
				0,
				0,
				0,
				0,
				1
			],
			"mesh" : 2,
			"name" : "node_MeshObject89128960-PolyGem25"
		}
	],
	"scene" : 0,
	"scenes" : 
	[
		{
			"extras" : {},
			"name" : "defaultScene",
			"nodes" : 
			[
				0,
				1,
				2
			]
		}
	]
}